<svg viewBox="0 0 90 90" xmlns="http://www.w3.org/2000/svg"><path d="m83.26 63.67h-15.26a3.06 3.06 0 0 1 -3.1-3.07v-9.2a3.06 3.06 0 0 1 3.1-3.07h15.3a3.06 3.06 0 0 1 3.06 3.07v9.2a3.06 3.06 0 0 1 -3.1 3.07z" fill="#94d5d2"/><path d="m68 63.67a3.06 3.06 0 0 1 -3.1-3.07v-9.2a3.06 3.06 0 0 1 3.1-3.07h15.3v-18.4a6.13 6.13 0 0 0 -6.12-6.13h-67.38a6.13 6.13 0 0 1 -6.12-6.13v64.4a6.13 6.13 0 0 0 6.12 6.13h67.34a6.13 6.13 0 0 0 6.12-6.13v-18.4z" fill="#ff8898"/><path d="m77.14 23.8h-67.34a6.13 6.13 0 0 1 -6.12-6.13 6.13 6.13 0 0 1 6.12-6.14h61.2a6.13 6.13 0 0 1 6.12 6.13z" fill="#e07885"/><path d="m15.69 2.02h39.53v21.15h-39.53z" fill="#ffeb97"/><path d="m29.97 17.67h40.5v5.51h-40.5z" fill="#fff"/><path d="m83.26 65.47h-15.26a4.87 4.87 0 0 1 -4.86-4.87v-9.2a4.87 4.87 0 0 1 4.86-4.87h15.3a4.87 4.87 0 0 1 4.86 4.87v9.2a4.87 4.87 0 0 1 -4.9 4.87zm-15.26-15.34a1.27 1.27 0 0 0 -1.26 1.27v9.2a1.27 1.27 0 0 0 1.26 1.27h15.3a1.27 1.27 0 0 0 1.26-1.27v-9.2a1.27 1.27 0 0 0 -1.26-1.27z" fill="#576065"/><path d="m77.14 90h-67.34a7.94 7.94 0 0 1 -7.92-7.93v-64.4a1.8 1.8 0 0 1 3.6 0 4.33 4.33 0 0 0 4.32 4.33h67.34a7.94 7.94 0 0 1 7.92 7.93v18.4a1.8 1.8 0 0 1 -1.8 1.8h-15.26a1.27 1.27 0 0 0 -1.26 1.27v9.2a1.27 1.27 0 0 0 1.26 1.27h15.3a1.8 1.8 0 0 1 1.8 1.8v18.4a7.94 7.94 0 0 1 -7.96 7.93zm-71.66-65.69v57.76a4.33 4.33 0 0 0 4.32 4.33h67.34a4.33 4.33 0 0 0 4.32-4.33v-16.6h-13.46a4.87 4.87 0 0 1 -4.86-4.87v-9.2a4.87 4.87 0 0 1 4.86-4.87h13.5v-16.6a4.33 4.33 0 0 0 -4.32-4.33h-67.38a7.87 7.87 0 0 1 -4.32-1.29z" fill="#576065"/><path d="m77.14 25.6h-67.34a7.93 7.93 0 0 1 0-15.87h5.89a1.8 1.8 0 1 1 0 3.6h-5.89a4.33 4.33 0 0 0 0 8.67h65.54v-4.33a4.33 4.33 0 0 0 -4.34-4.34h-15.78a1.8 1.8 0 1 1 0-3.6h15.78a7.94 7.94 0 0 1 7.92 7.93v6.14a1.8 1.8 0 0 1 -1.78 1.8z" fill="#576065"/><path d="m72.55 59.33a3.33 3.33 0 1 1 3.33-3.33 3.34 3.34 0 0 1 -3.33 3.33zm0-3.6a.27.27 0 0 0 -.27.27c0 .29.54.29.54 0a.27.27 0 0 0 -.27-.27z" fill="#576065"/><path d="m17.49 23.85h-3.6v-19.41a4.44 4.44 0 0 1 4.44-4.44h34.25a4.44 4.44 0 0 1 4.42 4.44v13.73h-3.6v-13.73a.84.84 0 0 0 -.83-.84h-34.24a.84.84 0 0 0 -.83.84z" fill="#576065"/><g fill="#fff"><path d="m71 33.53a2.24 2.24 0 0 1 -.34 0 1.12 1.12 0 0 1 -.34-.11 1 1 0 0 1 -.31-.16 1.8 1.8 0 0 1 -.27-.22 1.78 1.78 0 0 1 0-2.56 1.8 1.8 0 0 1 .27-.22 1 1 0 0 1 .31-.16 1.07 1.07 0 0 1 .34-.11 1.52 1.52 0 0 1 .7 0 1.21 1.21 0 0 1 .34.11 1.26 1.26 0 0 1 .31.16l.27.22a1.83 1.83 0 0 1 0 2.56l-.27.22a1.26 1.26 0 0 1 -.31.16 1.27 1.27 0 0 1 -.34.11 2.25 2.25 0 0 1 -.36 0z"/><path d="m61.94 31.73a1.8 1.8 0 0 1 1.8-1.8 1.81 1.81 0 0 1 1.82 1.8 1.81 1.81 0 0 1 -1.82 1.8 1.8 1.8 0 0 1 -1.8-1.8zm-7.25 0a1.79 1.79 0 0 1 1.8-1.8 1.81 1.81 0 0 1 1.8 1.8 1.81 1.81 0 0 1 -1.8 1.8 1.79 1.79 0 0 1 -1.81-1.8zm-7.27 0a1.79 1.79 0 0 1 1.8-1.8 1.81 1.81 0 0 1 1.8 1.8 1.81 1.81 0 0 1 -1.8 1.8 1.79 1.79 0 0 1 -1.81-1.8zm-7.27 0a1.81 1.81 0 0 1 1.8-1.8 1.81 1.81 0 0 1 1.8 1.8 1.81 1.81 0 0 1 -1.8 1.8 1.81 1.81 0 0 1 -1.81-1.8zm-7.27 0a1.81 1.81 0 0 1 1.8-1.8 1.81 1.81 0 0 1 1.8 1.8 1.81 1.81 0 0 1 -1.8 1.8 1.81 1.81 0 0 1 -1.81-1.8zm-7.27 0a1.81 1.81 0 0 1 1.8-1.8 1.81 1.81 0 0 1 1.8 1.8 1.81 1.81 0 0 1 -1.8 1.8 1.81 1.81 0 0 1 -1.81-1.8zm-7.27 0a1.81 1.81 0 0 1 1.8-1.8 1.81 1.81 0 0 1 1.8 1.8 1.81 1.81 0 0 1 -1.8 1.8 1.81 1.81 0 0 1 -1.82-1.8z"/><path d="m12.87 33.53a1.8 1.8 0 0 1 -1.28-3.08 1.86 1.86 0 0 1 2.54 0 1.8 1.8 0 0 1 -1.26 3.08z"/><path d="m69.21 82.06a1.8 1.8 0 0 1 1.8-1.8 1.79 1.79 0 0 1 1.8 1.8 1.78 1.78 0 0 1 -1.8 1.8 1.79 1.79 0 0 1 -1.8-1.8zm-7.2 0a1.81 1.81 0 0 1 1.82-1.8 1.79 1.79 0 0 1 1.78 1.8 1.78 1.78 0 0 1 -1.78 1.8 1.8 1.8 0 0 1 -1.83-1.8zm-7.2 0a1.8 1.8 0 0 1 1.8-1.8 1.79 1.79 0 0 1 1.8 1.8 1.78 1.78 0 0 1 -1.8 1.8 1.79 1.79 0 0 1 -1.8-1.8zm-7.2 0a1.8 1.8 0 0 1 1.8-1.8 1.79 1.79 0 0 1 1.8 1.8 1.78 1.78 0 0 1 -1.8 1.8 1.79 1.79 0 0 1 -1.8-1.8zm-7.2 0a1.81 1.81 0 0 1 1.82-1.8 1.79 1.79 0 0 1 1.77 1.8 1.78 1.78 0 0 1 -1.78 1.8 1.8 1.8 0 0 1 -1.81-1.8zm-7.2 0a1.8 1.8 0 0 1 1.8-1.8 1.79 1.79 0 0 1 1.8 1.8 1.78 1.78 0 0 1 -1.8 1.8 1.79 1.79 0 0 1 -1.8-1.8zm-7.2 0a1.8 1.8 0 0 1 1.8-1.8 1.79 1.79 0 0 1 1.8 1.8 1.78 1.78 0 0 1 -1.8 1.8 1.79 1.79 0 0 1 -1.81-1.8zm-7.2 0a1.8 1.8 0 0 1 1.8-1.8 1.79 1.79 0 0 1 1.8 1.8 1.78 1.78 0 0 1 -1.8 1.8 1.79 1.79 0 0 1 -1.8-1.8zm-7.2 0a1.8 1.8 0 0 1 1.8-1.8 1.79 1.79 0 0 1 1.8 1.8 1.78 1.78 0 0 1 -1.8 1.8 1.79 1.79 0 0 1 -1.8-1.8z"/><path d="m75.6 38.93a1.81 1.81 0 0 1 1.8-1.8 1.79 1.79 0 0 1 1.8 1.8 1.79 1.79 0 0 1 -1.8 1.8 1.81 1.81 0 0 1 -1.8-1.8zm0-7.2a1.81 1.81 0 0 1 1.8-1.8 1.79 1.79 0 0 1 1.8 1.8 1.79 1.79 0 0 1 -1.8 1.8 1.81 1.81 0 0 1 -1.8-1.8z"/><path d="m75.6 81.45a1.81 1.81 0 0 1 1.8-1.8 1.79 1.79 0 0 1 1.8 1.8 1.79 1.79 0 0 1 -1.8 1.8 1.81 1.81 0 0 1 -1.8-1.8zm0-7.2a1.81 1.81 0 0 1 1.8-1.8 1.79 1.79 0 0 1 1.8 1.8 1.79 1.79 0 0 1 -1.8 1.8 1.81 1.81 0 0 1 -1.8-1.8z"/></g><path d="m73.35 24.34h-3.6v-4.81a1 1 0 0 0 -1-1h-37.14a1 1 0 0 0 -1 1v4.81h-3.6v-4.81a4.56 4.56 0 0 1 4.6-4.53h37.19a4.56 4.56 0 0 1 4.55 4.56z" fill="#576065"/></svg>